<svg version="1.1"
	xmlns="http://www.w3.org/2000/svg"
	viewBox="0 0 84.5 86.5"
	fill="white">
	<path d="M9.1,50.2c-3.3,0-6-2.7-6-6c0-3.3,2.7-6,6-6s6,2.7,6,6C15.1,47.5,12.4,50.2,9.1,50.2z M18.8,28.3c-4.2,0-7.5-3.4-7.5-7.5
		c0-4.2,3.4-7.5,7.5-7.5c4.2,0,7.5,3.4,7.5,7.5C26.3,24.9,22.9,28.3,18.8,28.3z M18.8,73.7c-3.3,0-6-2.7-6-6c0-3.3,2.7-6,6-6
		c3.3,0,6,2.7,6,6C24.8,71,22.1,73.7,18.8,73.7z M42.3,20c-5,0-9.1-4.1-9.1-9.1s4.1-9.1,9.1-9.1c5,0,9.1,4.1,9.1,9.1
		S47.3,20,42.3,20z M42.3,83.4c-3.3,0-6-2.7-6-6c0-3.3,2.7-6,6-6s6,2.7,6,6C48.3,80.7,45.6,83.4,42.3,83.4z M65.7,31.3
		c-5.8,0-10.6-4.7-10.6-10.6c0-5.8,4.7-10.6,10.6-10.6c5.8,0,10.6,4.8,10.6,10.6C76.3,26.6,71.5,31.3,65.7,31.3z M65.7,73.7
		c-3.3,0-6-2.7-6-6c0-3.3,2.7-6,6-6c3.3,0,6,2.7,6,6C71.8,71,69,73.7,65.7,73.7z M75.5,50.2c-3.3,0-6-2.7-6-6c0-3.3,2.7-6,6-6
		s6,2.7,6,6C81.5,47.5,78.8,50.2,75.5,50.2z"/>
</svg>
